<?xml version="1.0" encoding="UTF-8" standalone="no" ?>
<!DOCTYPE svg PUBLIC "-//W3C//DTD SVG 1.1//EN" "http://www.w3.org/Graphics/SVG/1.1/DTD/svg11.dtd">
<svg xmlns="http://www.w3.org/2000/svg" xmlns:xlink="http://www.w3.org/1999/xlink" version="1.1" width="500" height="500" viewBox="0 0 500 500" xml:space="preserve">
<desc>Created with Fabric.js 4.6.0</desc>
<defs>
</defs>
<g transform="matrix(-0.73 0 0 0.73 244.76 244.05)" id="VezgYTOigFkxW5cLkyg1z"  >
<path style="stroke: none; stroke-width: 1; stroke-dasharray: none; stroke-linecap: butt; stroke-dashoffset: 0; stroke-linejoin: miter; stroke-miterlimit: 4; fill: rgb(43,71,95); fill-rule: nonzero; opacity: 1;" vector-effect="non-scaling-stroke"  transform=" translate(-300, -300)" d="M 300 600.005 C 134.576 600.005 0 465.424 0 300 C 0 134.57600000000002 134.576 0 300 0 C 465.424 0 600 134.576 600 300 C 600 465.424 465.424 600.005 300 600.005 z M 300 35.861 C 154.355 35.861 35.861 154.355 35.861 300 C 35.861 445.65 154.355 564.144 300 564.144 C 445.645 564.144 564.139 445.65 564.139 300 C 564.139 154.355 445.645 35.861 300 35.861 z M 353.85 300.002 L 197.021 456.83 L 262.111 456.83 L 418.93899999999996 300.00199999999995 L 262.111 143.173 L 197.021 143.173 L 353.85 300.002 z" stroke-linecap="round" />
</g>
</svg>