<?xml version="1.0" encoding="utf-8"?>
<!-- Generator: Adobe Illustrator 23.0.1, SVG Export Plug-In . SVG Version: 6.00 Build 0)  -->
<svg version="1.1" id="Layer_1" xmlns="http://www.w3.org/2000/svg" xmlns:xlink="http://www.w3.org/1999/xlink" x="0px" y="0px"
	 viewBox="0 0 759 394.9" style="enable-background:new 0 0 759 394.9;" xml:space="preserve">
<style type="text/css">
	.st0{fill:url(#SVGID_1_);stroke:#545454;stroke-miterlimit:10;}
	.st1{fill:#5D3C95;}
	.st2{fill:#72BD4A;}
	.st3{fill:#231F20;}
	.st4{font-family:'Montserrat-Bold';}
	.st5{font-size:17.0426px;}
</style>
<linearGradient id="SVGID_1_" gradientUnits="userSpaceOnUse" x1="55.6271" y1="192.3235" x2="712.9689" y2="192.3235">
	<stop  offset="2.024560e-07" style="stop-color:#C5BCBD"/>
	<stop  offset="1" style="stop-color:#FFFFFF"/>
</linearGradient>
<path class="st0" d="M709.9,310.3l-2.9-1.9l-6.8-4.6l6.8-1.7l2.9-0.7l0.6-3.8l-3.5-1.5l5.9-1.3l-1.9-4l-16.4-1.8l-7-7.5l-22,0.4
	l-10.8-3.7l-6.5,2l-7.1-1.3l-10.7,2.5l-11.2-4l-3.9-3.2l-5,1.3l-1.1,3.4l4.4,3.5l-4.4,2.7l-0.9,0.6l-4.6-0.2l-14.2-4.6l-7-4.8
	l-0.5-1.8l-8.2-1.6l-0.7-0.1l-3-0.6l-5.6-5.4l0,0l0-8.1l8.7-5.7l0.7-3.3l-10.6-3l-17.4,6.1l-3.2,2.2l-0.3,2.6l-6.5,2.4l-11.8-4.6
	l-9.6-7l-7.7-7.6l-0.2-2.8l-6.1-3.3l-1.1-1.5l-2.7-3.8l2.7-5l-6.3-6.4l-13.2-4.7l-4.8-8.5l-4.8-4.3l-4.1-8l-3.2-6.3l-4.6-9.6
	l-3.7-1.4l-0.5-3.2l22.6-6.8l5.2,0.5l0.4,0l4.4,0.4l2.3,0.2l0,0l3.1-1.6l-3.1-4.7l-2.3-3.6l2.3-2.6l-1.6-2.5l-1.4-2.2l-1.9-3
	l-2.2-3.4l2.2-6.3l-2.2-1.3l-2.6,0.1l-1.6,0.1l1.6-2.4l6.8-3.4l4-6.4l4.7-2l1.4,4.6l11.9,2.5l7.9-2.1l0.6-0.8l3.7-5.5l0.1-0.2
	l-0.1-0.2l-3.7-4.1l3.7-2.4l4.2-0.5l2.5-3.3l4.2,1.9l7.8,1.2l11.7-1.6l6.1,0.6l14.5-3.5L569,93.1l-20.4-6.9l-14.1-2.5l-2.7-0.5
	l-0.1,0l-0.4-0.1l0.4-0.6l0.1-0.2l2.7-4l-0.6-2.7l-2-1.4l-0.1-0.1l-1.8-1.3l-0.8-0.6l0.9-1.1l1.7-2l0.2-4.6l-1.9-2.8l-1.3-1.9
	l1.3-11.8l-7-4.6l-4.6-2.7l-10-3.3l-2.3-2.2l-5,1.1l-4.8-4.3l-21-1l-7.4,3.6l-0.1,2.6l4.5,2.1l1.8,16.5l-1.9,0.1l-4.5,0.2l-0.7,0
	l-8.1-0.9l-7.2,2.3l-19.7,12.4l-0.8,3.5l7.1,8.4l-2.2,3.5l2.1,3.2l1.8,2.7l-0.2,3.3l-1.6-0.1l-2.1-0.1l-1.6-0.1l-3.3-1l-4.6-1.4
	l-6.1,0.7l-11,6.5l-22,1.2l-3.2,1.7l-5.1,0.7l-6-2.2l-7.3,0.3l-15.7,3.9l-11.6-1.9l-18.2,1.8l-14.4-1.9l-8.5-4.7l-2.5-1.4l2.5-4.2
	l-6.1-2.8l-14.3,0.3l-12.4-1.2l-6.4,1.1l-5,3.7l1.6,4.9l3.3,2.9l-2.6,1.6l-0.7,0.3l-1.6,0.7l-3.8,1.7l-5,5.1l3.7,4.5l-3.8,4.8
	l-3.6,4.6l-9.5,4.5l-5.7-4.8l-11.1-3.5l-6.3-6.7l-10.4-6l-6.3,2.5l-6.5-5.2l-9.1,3.1l-0.9,9.4l2,10.1l15.9,8.7l-0.8,1.4l-7.2-1.2
	l-8-2.6l-2-0.6l-1.3-0.4l-1.8-4.4l-5.6-1.1l-5.7,5.3l-4,25.1l4.7,6.6l21,6.8l11,1.5l12-2.6l-0.5,2.8l-8.7,3.8l-2.8,4l-1.6,2.3
	l-9.5,4.1l-7.4,3.2l-2.6,1.8l-21.8,14.9l-3.2,6l-20.9,17.8l-16.7,29.6L98.8,270l-13,16.7l0.8,4.6l-0.9,1.3L74,310l-14.1,17.3
	l-4.3,13.9l5.2,6.8l18,4.7l12-4.1l16.6,4.9l8.1-4.7l15-1.4l13.9,2.4l19.3-13.1l30.7-5.2l16.5-14.4l12.7-9l15.2-2.5l11.5,5.7
	l16.1-0.2l20.7,4.4l5.7-3.3l9.9-1l14,3.2l12.4-2.9l25.2,2.4l18-1.9l34.5,5.4l13.1-1.7l13.7-7l24.7,3.2c0,0,0.1,0,0.2,0.1
	c0,0,0.1,0,0.1,0c0.2,0.1,0.4,0.2,0.8,0.3c0.1,0,0.1,0,0.2,0.1c0.1,0,0.2,0.1,0.3,0.1c0.2,0.1,0.4,0.1,0.6,0.2c0,0,0,0,0,0
	c0.2,0.1,0.5,0.2,0.7,0.3c0.1,0.1,0.3,0.1,0.4,0.2c0.3,0.1,0.7,0.3,1,0.4c0.3,0.1,0.7,0.3,1,0.4c0.1,0,0.1,0.1,0.2,0.1
	c0.1,0.1,0.3,0.1,0.4,0.2c0.1,0,0.1,0,0.2,0.1c0.2,0.1,0.3,0.1,0.5,0.2c0,0,0.1,0,0.1,0.1c0.1,0,0.2,0.1,0.4,0.1
	c0.1,0,0.3,0.1,0.4,0.1c0.1,0,0.1,0.1,0.2,0.1c0.1,0,0.2,0.1,0.3,0.1c0.4,0.2,0.8,0.3,1.3,0.5c0,0,0,0,0,0c0.4,0.2,0.8,0.3,1.2,0.4
	c0,0,0,0,0.1,0c0.2,0.1,0.3,0.1,0.5,0.2c0.1,0,0.1,0,0.2,0.1c0.1,0,0.2,0.1,0.3,0.1c0.1,0,0.1,0.1,0.2,0.1c0.1,0,0.2,0.1,0.3,0.1
	c0.1,0,0.1,0,0.2,0.1c0.1,0,0.2,0.1,0.2,0.1c0.1,0,0.2,0.1,0.2,0.1c0.1,0,0.1,0.1,0.2,0.1c0.1,0,0.1,0,0.2,0.1
	c0.1,0,0.2,0.1,0.3,0.1c0,0,0,0,0,0c0.1,0,0.2,0.1,0.3,0.1c0,0,0,0,0,0c0.1,0,0.1,0.1,0.2,0.1c0,0,0,0,0,0c0,0,0,0,0,0
	c0.1,0,0.1,0,0.2,0.1c0,0,0,0,0.1,0c0,0,0.1,0,0.1,0c0,0,0,0,0,0c0,0,0.1,0,0.1,0c0,0,0,0,0.1,0c0,0,0,0,0,0c0,0,0.1,0,0.1,0
	c0,0,0,0,0,0c0,0,0,0,0.1,0c0,0,0.1,0,0.1,0c0,0,0,0,0,0c0.1,0,0.2,0,0.3,0c0,0,0,0,0.1,0c0.1,0,0.2,0,0.4,0c0,0,0,0,0.1,0
	c0.1,0,0.3,0,0.4,0c0,0,0,0,0.1,0c0.2,0,0.3,0,0.5,0c0,0,0.1,0,0.1,0c0.2,0,0.4,0,0.6,0c0,0,0,0,0,0c0.2,0,0.4,0,0.6,0
	c0,0,0.1,0,0.1,0c0.2,0,0.4,0,0.6,0c0,0,0.1,0,0.1,0c0.2,0,0.4,0,0.6,0c0,0,0,0,0.1,0c0.2,0,0.4,0,0.6,0c0,0,0.1,0,0.1,0
	c0.2,0,0.4,0,0.6,0c0,0,0,0,0,0c0.2,0,0.4,0,0.6,0c0,0,0.1,0,0.1,0c0.2,0,0.4,0,0.5,0c0.1,0,0.1,0,0.1,0c0.4,0,0.7-0.1,1-0.1
	c0,0,0,0,0,0c0.2,0,0.3,0,0.4,0c0,0,0,0,0,0c0.1,0,0.2,0,0.3,0c0,0,0,0,0.1,0c0.1,0,0.2,0,0.3,0c0,0,0.1,0,0.1,0l13-10.7l5.3-2.8
	l1.6-7.4l8.1-3.5l3.6-1.6l-3.6-9.3l11.3-0.2l7.2,2l3.7-2l1.2-0.7l1.2-3.1l-2.4-4.8l6.5-2l5.4,2.2l2.9,5.6l5.9,2.3l-5.9,3.7l-3,1.9
	l-1.4,0.9l1.4,0.9l3,2l5.9,3.9l22.5,14.9l-3.4,3l-11.1,1.8l-12.8-2.2l-3.2,1.2l-4.8,1.7l-7.7,7.8l1.9,6.6l6.5,0.5l7.4-3.7l6.8-1.1
	l-4.5,6.3l-2.3,1.3l-3.7,2.2l-3.7,3.6l-1.4,1.3l-5.2,5l-1.9,1.8l-0.5,0.5l1,1.3l1.4,1.9l0.5,0.6l6.1,0.9l0.9,0.1l6.5-2.2l4.9-1.7
	l1.9-1.6l5.7-4.8l4.7,0.1l16.7-8.5l7,4.2l5.7,0.4l21.4-5.3l6-5.6l12.3-1.6l14.8-7.6l29.3-0.7l9.5,6.8l3.9,0.9l1.8-5l3.3-2.1l2.5,0.1
	l5,0.2l1.8-1.1l2.9-1.7l0.6-0.3l1-0.6l0.7-2.1l-1.7-1.1L709.9,310.3z"/>
<g>
	<polygon class="st1" points="474.1,55.8 472.3,39.3 467.8,37.2 467.8,56 472.3,55.8 	"/>
	<polygon class="st1" points="530.1,47.9 528.8,59.7 530,61.7 	"/>
	<polygon class="st1" points="529.1,72.2 529.9,72.8 531.7,74.1 531.9,74.1 531.9,64.5 531.7,69.1 530,71.2 	"/>
	<polygon class="st1" points="436.3,94.2 438.5,94.3 440,94.4 440.3,91.1 438.5,88.4 436.4,85.2 438.5,81.7 431.4,73.3 431.3,93 
		434.7,94.1 	"/>
	<polygon class="st1" points="531.7,82.4 531.3,83.1 531.7,83.2 531.8,83.2 534.5,83.7 534.5,78.2 531.8,82.2 	"/>
	<polygon class="st1" points="297.7,92.3 295.2,96.5 297.7,97.9 	"/>
	<polygon class="st1" points="255.8,102.9 258.4,101.3 255.1,98.3 253.5,93.4 253.5,103.9 255.1,103.2 	"/>
	<polygon class="st1" points="244.7,110.7 244.7,119.9 248.5,115.2 	"/>
	<polygon class="st1" points="482,134.9 484.2,136.2 482,142.4 484.2,145.8 486.1,148.8 487.5,151 490,146.9 494.7,144.9 
		496.1,149.5 508,151.9 515.9,149.9 520.3,143.3 520.4,136.6 524.4,136.1 526.9,132.9 531.1,134.8 538.9,135.9 550.6,134.3 
		556.7,134.9 571.2,131.4 571.2,107.3 556.7,110.8 550.7,110.2 539,111.8 531.2,110.7 527,108.8 524.4,112.1 520.3,112.6 
		516.6,114.9 520.3,119.1 520.4,119.3 520.3,119.5 516.5,125 516,125.8 508.1,127.9 496.2,125.4 494.8,120.8 490.1,122.8 
		486.2,129.2 479.4,132.7 477.7,135.1 479.4,135 	"/>
	<polygon class="st1" points="185.1,136.9 192.3,138.1 193.1,136.7 177.1,128 175.2,117.9 175.1,133.7 177.1,134.3 	"/>
	<polygon class="st1" points="489.1,159.7 489.1,153.5 486.8,156.1 	"/>
	<polygon class="st1" points="458.4,176.1 463,185.6 466.2,191.9 476.7,188.7 489,190 492.1,188.4 492.2,164.4 489.1,165.9 
		489.1,165.9 486.7,165.7 482.3,165.2 481.9,165.2 476.7,164.7 454.2,171.5 454.6,174.7 	"/>
	<polygon class="st1" points="172.2,192.4 174.8,190.6 182.2,187.5 191.7,183.4 193.2,181.1 196,177.1 204.7,173.3 205.2,170.5 
		193.3,173.1 182.3,171.6 161.3,164.8 156.6,158.2 156.5,182.3 161.2,188.9 	"/>
	<polygon class="st1" points="499.4,223.8 496.7,228.8 499.4,232.6 	"/>
	<polygon class="st1" points="564.4,266.2 564.5,266.3 570.1,271.7 573.1,272.3 573.8,272.4 573.9,249.1 573.2,252.4 564.5,258.1 	
		"/>
	<polygon class="st1" points="609.2,278.7 609.2,284.9 613.6,282.2 	"/>
	<path class="st1" d="M535.2,301.6l0-5.6l4.1-1.3l3.9,1.6l0,14.9l2.3,1.5l3.2-1.2l12.8,2.2l11.1-1.8l3.4-3L553.6,294l-5.9-3.9l-3-2
		l-1.4-0.9l1.4-0.9l3-1.9l5.9-3.7l-5.9-2.3l-2.9-5.6l-5.4-2.2l-6.5,2l2.4,4.8l-1.2,3.1l-1.2,0.7l-3.7,2l-7.2-2l-11.3,0.2l3.6,9.3
		l-3.6,1.6l-8.1,3.5l-1.6,7.4l-5.3,2.8l-13,10.7c0,0,0,0-0.1,0c-0.1,0-0.2,0-0.3,0c0,0,0,0-0.1,0c-0.1,0-0.2,0-0.3,0c0,0,0,0,0,0
		c-0.1,0-0.3,0-0.4,0c0,0,0,0,0,0c-0.3,0-0.6,0.1-1,0.1c-0.1,0-0.1,0-0.1,0c-0.2,0-0.3,0-0.5,0c0,0-0.1,0-0.1,0c-0.2,0-0.4,0-0.6,0
		c0,0,0,0,0,0c-0.2,0-0.4,0-0.6,0c0,0-0.1,0-0.1,0c-0.2,0-0.4,0-0.6,0c0,0,0,0-0.1,0c-0.2,0-0.4,0-0.6,0c0,0-0.1,0-0.1,0
		c-0.2,0-0.4,0-0.6,0c0,0-0.1,0-0.1,0c-0.2,0-0.4,0-0.6,0c0,0,0,0,0,0c-0.2,0-0.4,0-0.6,0c0,0-0.1,0-0.1,0c-0.2,0-0.3,0-0.5,0
		c0,0,0,0-0.1,0c-0.1,0-0.3,0-0.4,0c0,0,0,0-0.1,0c0,0,0,0,0,0c-0.1,0-0.2,0-0.4,0c0,0,0,0-0.1,0c-0.1,0-0.2,0-0.3,0c0,0,0,0,0,0
		c0,0-0.1,0-0.1,0c0,0,0,0-0.1,0c0,0,0,0,0,0c0,0,0,0,0,0c0,0-0.1,0-0.1,0c0,0,0,0,0,0c0,0,0,0,0,0c0,0,0,0,0,0c0,0,0,0,0,0
		c0,0,0,0,0,0c0,0,0,0,0,0c0,0,0,0,0,0c0,0,0,0-0.1,0c0,0,0,0,0,0c0,0-0.1,0-0.1,0c0,0,0,0-0.1,0c0,0-0.1,0-0.2-0.1c0,0,0,0,0,0
		c0,0,0,0,0,0c-0.1,0-0.1-0.1-0.2-0.1c0,0,0,0,0,0c-0.1,0-0.2-0.1-0.3-0.1c0,0,0,0,0,0c-0.1,0-0.2-0.1-0.3-0.1c-0.1,0-0.1,0-0.2-0.1
		c-0.1,0-0.1-0.1-0.2-0.1c-0.1,0-0.1-0.1-0.2-0.1c-0.1,0-0.2-0.1-0.2-0.1c-0.1,0-0.1,0-0.2-0.1c-0.1,0-0.2-0.1-0.3-0.1
		c-0.1,0-0.1-0.1-0.2-0.1c-0.1,0-0.2-0.1-0.3-0.1c-0.1,0-0.1,0-0.2-0.1c-0.2-0.1-0.3-0.1-0.5-0.2c0,0,0,0-0.1,0
		c-0.4-0.1-0.8-0.3-1.2-0.4c0,0,0,0,0,0c-0.4-0.2-0.8-0.3-1.3-0.5c-0.1,0-0.2-0.1-0.3-0.1c-0.1,0-0.1-0.1-0.2-0.1
		c-0.1,0-0.3-0.1-0.4-0.1c-0.1,0-0.2-0.1-0.4-0.1c0,0-0.1,0-0.1-0.1c-0.2-0.1-0.3-0.1-0.5-0.2c-0.1,0-0.1,0-0.2-0.1
		c-0.1-0.1-0.3-0.1-0.4-0.2c-0.1,0-0.1-0.1-0.2-0.1c-0.4-0.1-0.7-0.3-1-0.4c-0.4-0.1-0.7-0.3-1-0.4c-0.1-0.1-0.3-0.1-0.4-0.2
		c-0.3-0.1-0.5-0.2-0.7-0.3c0,0,0,0,0,0c-0.2-0.1-0.4-0.2-0.6-0.2c-0.1,0-0.2-0.1-0.3-0.1c-0.1,0-0.1,0-0.2-0.1
		c-0.3-0.1-0.6-0.2-0.8-0.3c0,0-0.1,0-0.1,0c-0.1,0-0.2-0.1-0.2-0.1l-24.7-3.2l-13.7,7l-13.1,1.7l-34.5-5.4l-18,1.9l-25.2-2.4
		l-12.4,2.9l-14-3.2l-9.9,1l-5.7,3.3l-20.7-4.4l-16.1,0.2l-11.5-5.7l-15.2,2.5l-12.7,9l-16.5,14.4l-30.7,5.2l-19.3,13.1l-13.9-2.4
		l-15,1.4l-8.1,4.7l-16.6-4.9l-12,4.1l-18-4.7l-5.2-6.8l-0.1,24.1l5.2,6.8l18,4.7l12-4.1l16.6,4.9l8.1-4.7l15-1.4l13.9,2.4
		l19.3-13.1l30.7-5.2l16.5-14.4l12.7-9l15.2-2.5l11.5,5.7l16.1-0.2l20.7,4.4l5.7-3.3l9.9-1l14,3.2l12.4-2.9l25.2,2.4l18-1.9
		l34.5,5.4l13.1-1.7l13.7-7l24.7,3.2c0,0,0.1,0,0.2,0.1c0,0,0.1,0,0.1,0c0.3,0.1,0.7,0.3,1.2,0.4c0,0,0.1,0,0.1,0c0,0,0.1,0,0.1,0
		c0.1,0,0.2,0.1,0.3,0.1c0.1,0,0.2,0.1,0.2,0.1c0.1,0,0.3,0.1,0.4,0.2c0.3,0.1,0.6,0.2,0.9,0.3c0.1,0,0.2,0.1,0.2,0.1
		c0.1,0,0.3,0.1,0.4,0.1c0,0,0,0,0,0c0.4,0.1,0.8,0.3,1.2,0.4c0,0,0,0,0.1,0c0.2,0.1,0.4,0.1,0.5,0.2c0.1,0,0.1,0,0.2,0.1
		c0.2,0.1,0.3,0.1,0.5,0.2c0,0,0.1,0,0.1,0.1c0.1,0.1,0.3,0.1,0.4,0.2c0.1,0,0.2,0.1,0.3,0.1c0.1,0,0.2,0.1,0.3,0.1
		c0.1,0,0.2,0.1,0.3,0.1c0.9,0.3,1.7,0.6,2.5,0.9c0,0,0,0,0.1,0c0.2,0.1,0.3,0.1,0.5,0.2c0.1,0,0.1,0,0.2,0.1c0.1,0,0.2,0.1,0.3,0.1
		c0.1,0,0.1,0.1,0.2,0.1c0.1,0,0.2,0.1,0.3,0.1c0.1,0,0.1,0,0.2,0.1c0.1,0,0.2,0.1,0.2,0.1c0.1,0,0.2,0.1,0.2,0.1
		c0.1,0,0.1,0.1,0.2,0.1c0.1,0,0.1,0.1,0.2,0.1c0.1,0,0.2,0.1,0.3,0.1c0,0,0,0,0,0c0.1,0,0.2,0.1,0.3,0.1c0,0,0,0,0,0
		c0.1,0,0.2,0.1,0.2,0.1c0,0,0,0,0,0c0.1,0,0.1,0,0.2,0.1c0,0,0,0,0.1,0c0,0,0.1,0,0.1,0c0,0,0,0,0,0c0,0,0.1,0,0.1,0c0,0,0,0,0,0
		c0,0,0,0,0,0c0,0,0,0,0,0c0,0,0,0,0,0h0c0,0,0,0,0,0c0,0,0,0,0.1,0c0,0,0,0,0,0c0,0,0,0,0,0c0,0,0,0,0.1,0c0,0,0.1,0,0.1,0
		c0,0,0,0,0,0c0,0,0,0,0,0c0.1,0,0.2,0,0.3,0c0,0,0,0,0.1,0c0.1,0,0.2,0,0.4,0c0,0,0,0,0,0c0,0,0,0,0.1,0c0.1,0,0.3,0,0.4,0
		c0,0,0,0,0.1,0c0.2,0,0.3,0,0.5,0c0,0,0.1,0,0.1,0c0.2,0,0.4,0,0.6,0c0,0,0,0,0,0c0.2,0,0.4,0,0.6,0c0,0,0.1,0,0.1,0
		c0.2,0,0.4,0,0.6,0c0,0,0.1,0,0.1,0c0.2,0,0.4,0,0.6,0c0,0,0,0,0.1,0c0.2,0,0.4,0,0.6,0c0,0,0.1,0,0.1,0c0.2,0,0.4,0,0.6-0.1
		c0,0,0,0,0,0c0.2,0,0.4,0,0.6,0c0,0,0.1,0,0.1,0c0.2,0,0.4,0,0.5,0c0.1,0,0.1,0,0.1,0c0.4,0,0.7-0.1,1-0.1c0,0,0,0,0,0
		c0.2,0,0.3,0,0.4,0c0,0,0,0,0,0c0.1,0,0.2,0,0.3,0c0,0,0,0,0.1,0c0.1,0,0.2,0,0.3,0c0,0,0.1,0,0.1,0l13-10.7l5.3-2.8l1.6-7.4
		l11.7-5l0-9.4l7.7-0.2l7.2,2l4.9-2.7L535.2,301.6z"/>
	<polygon class="st1" points="85.8,286.7 85.8,292.5 86.7,291.3 	"/>
	<polygon class="st1" points="707.1,296.1 710.5,297.6 709.9,301.4 707.1,302.1 700.2,303.8 707,308.4 709.9,310.3 710.5,310.7 
		712.2,311.8 711.4,313.9 710.5,314.5 709.9,314.8 707,316.5 705.2,317.5 700.2,317.4 697.7,317.3 694.4,319.4 692.6,324.4 
		688.7,323.5 679.2,316.7 649.9,317.4 635.2,325 622.8,326.6 616.9,332.2 595.5,337.4 589.8,337 582.8,332.9 566,341.4 561.3,341.2 
		555.6,346.1 553.7,347.7 548.8,349.3 542.3,351.6 541.4,351.4 535.3,350.6 534.9,349.9 533.5,348 532.5,346.7 532.4,370.8 
		535.2,374.6 542.2,375.6 553.7,371.7 561.2,365.3 566,365.4 582.7,357 589.7,361.1 595.4,361.5 616.8,356.2 622.8,350.7 
		635.1,349.1 649.9,341.5 679.2,340.8 688.7,347.6 692.6,348.5 694.3,343.5 697.6,341.4 705.1,341.6 711.4,338 712.1,335.9 
		712.1,319 712.9,318.8 713,294.8 	"/>
	<polygon class="st1" points="534.9,328.9 533.1,322.3 533,346.2 534.9,344.4 540.1,339.5 541.4,338.1 545.1,334.5 548.9,332.3 
		551.2,331 555.7,324.7 548.9,325.8 541.5,329.5 	"/>
</g>
<g>
	<path class="st2" d="M413.3,96.8c-0.7-3.1-2-5.8-4-8.3c-2.7-3.3-6-5.6-10.1-6.7c-1.4-0.4-3-0.6-4.5-0.9h-2.5
		c-1,0.1-1.9,0.2-2.9,0.4c-8.3,1.8-14.5,8.2-15.9,16.5c-0.9,5.1,0.1,9.8,2.9,14.2c4.2,6.6,8.5,13.2,12.7,19.8
		c0.9,1.5,1.9,2.9,2.8,4.4c0.9,1.3,2.4,1.3,3.2,0c0.1-0.1,0.2-0.2,0.2-0.4c5.1-8,10.3-16,15.4-24
		C413.7,107.3,414.4,102.2,413.3,96.8z M393.5,110.5c-5.1,0-9.2-4.2-9.2-9.3c0-5.1,4.2-9.2,9.2-9.2c5.1,0,9.2,4.2,9.2,9.2
		C402.7,106.3,398.5,110.5,393.5,110.5z"/>
	<path class="st1" d="M394.8,144c-6.9-0.1-12.5-0.6-17.9-2.1c-3-0.9-6-1.9-8.4-4c-0.8-0.7-1.6-1.6-2.1-2.5c-1.2-2.1-0.8-4.4,0.9-6.4
		c1.7-1.9,4-3.1,6.3-4c1.6-0.6,3.2-1,4.8-1.5c0.4-0.1,0.6,0,0.8,0.3c2.9,4.6,5.9,9.2,8.9,13.8c1.1,1.8,2.7,2.9,4.8,3
		c2.2,0.2,4.1-0.6,5.3-2.4c1.3-1.8,2.4-3.7,3.7-5.6c1.9-2.9,3.7-5.8,5.6-8.8c0.3-0.4,0.5-0.5,0.9-0.4c2.8,0.7,5.5,1.6,8,3
		c1.4,0.8,2.7,1.8,3.6,3.2c1.6,2.3,1.4,5-0.5,7.1c-1.6,1.7-3.6,2.9-5.7,3.8c-3.9,1.6-8,2.5-12.1,2.9
		C399,143.8,396.2,143.9,394.8,144z"/>
</g>
<g>
	<path class="st2" d="M610,247.9c-0.7-3.1-2-5.8-4-8.3c-2.7-3.3-6-5.6-10.1-6.7c-1.4-0.4-3-0.6-4.5-0.9h-2.5c-1,0.1-1.9,0.2-2.9,0.4
		c-8.3,1.8-14.5,8.2-15.9,16.5c-0.9,5.1,0.1,9.8,2.9,14.2c4.2,6.6,8.5,13.2,12.7,19.8c0.9,1.5,1.9,2.9,2.8,4.4
		c0.9,1.3,2.4,1.3,3.2,0c0.1-0.1,0.2-0.2,0.2-0.4c5.1-8,10.3-16,15.4-24C610.4,258.4,611.1,253.3,610,247.9z M590.1,261.6
		c-5.1,0-9.2-4.2-9.2-9.3c0-5.1,4.2-9.2,9.2-9.2c5.1,0,9.2,4.2,9.2,9.2C599.4,257.4,595.2,261.6,590.1,261.6z"/>
	<path class="st1" d="M591.5,295.1c-6.9-0.1-12.5-0.6-17.9-2.1c-3-0.9-6-1.9-8.4-4c-0.8-0.7-1.6-1.6-2.1-2.5
		c-1.2-2.1-0.8-4.4,0.9-6.4c1.7-1.9,4-3.1,6.3-4c1.6-0.6,3.2-1,4.8-1.5c0.4-0.1,0.6,0,0.8,0.3c2.9,4.6,5.9,9.2,8.9,13.8
		c1.1,1.8,2.7,2.9,4.8,3c2.2,0.2,4.1-0.6,5.3-2.4c1.3-1.8,2.4-3.7,3.7-5.6c1.9-2.9,3.7-5.8,5.6-8.8c0.3-0.4,0.5-0.5,0.9-0.4
		c2.8,0.7,5.5,1.6,8,3c1.4,0.8,2.7,1.8,3.6,3.2c1.6,2.3,1.4,5-0.5,7.1c-1.6,1.7-3.6,2.9-5.7,3.8c-3.9,1.6-8,2.5-12.1,2.9
		C595.7,294.9,592.9,295,591.5,295.1z"/>
</g>
<g>
	<path class="st2" d="M177.8,242.9c-0.7-3.1-2-5.8-4-8.3c-2.7-3.3-6-5.6-10.1-6.7c-1.4-0.4-3-0.6-4.5-0.9h-2.5
		c-1,0.1-1.9,0.2-2.9,0.4c-8.3,1.8-14.5,8.2-15.9,16.5c-0.9,5.1,0.1,9.8,2.9,14.2c4.2,6.6,8.5,13.2,12.7,19.8
		c0.9,1.5,1.9,2.9,2.8,4.4c0.9,1.3,2.4,1.3,3.2,0c0.1-0.1,0.2-0.2,0.2-0.4c5.1-8,10.3-16,15.4-24
		C178.2,253.4,178.9,248.3,177.8,242.9z M157.9,256.6c-5.1,0-9.2-4.2-9.2-9.3c0-5.1,4.2-9.2,9.2-9.2c5.1,0,9.2,4.2,9.2,9.2
		C167.2,252.4,163,256.6,157.9,256.6z"/>
	<path class="st1" d="M159.3,290.1c-6.9-0.1-12.5-0.6-17.9-2.1c-3-0.9-6-1.9-8.4-4c-0.8-0.7-1.6-1.6-2.1-2.5
		c-1.2-2.1-0.8-4.4,0.9-6.4c1.7-1.9,4-3.1,6.3-4c1.6-0.6,3.2-1,4.8-1.5c0.4-0.1,0.6,0,0.8,0.3c2.9,4.6,5.9,9.2,8.9,13.8
		c1.1,1.8,2.7,2.9,4.8,3c2.2,0.2,4.1-0.6,5.3-2.4c1.3-1.8,2.4-3.7,3.7-5.6c1.9-2.9,3.7-5.8,5.6-8.8c0.3-0.4,0.5-0.5,0.9-0.4
		c2.8,0.7,5.5,1.6,8,3c1.4,0.8,2.7,1.8,3.6,3.2c1.6,2.3,1.4,5-0.5,7.1c-1.6,1.7-3.6,2.9-5.7,3.8c-3.9,1.6-8,2.5-12.1,2.9
		C163.5,289.9,160.7,290,159.3,290.1z"/>
</g>
<g>
	<path class="st2" d="M192.6,163.7c-0.7-3.1-2-5.8-4-8.3c-2.7-3.3-6-5.6-10.1-6.7c-1.4-0.4-3-0.6-4.5-0.9h-2.5
		c-1,0.1-1.9,0.2-2.9,0.4c-8.3,1.8-14.5,8.2-15.9,16.5c-0.9,5.1,0.1,9.8,2.9,14.2c4.2,6.6,8.5,13.2,12.7,19.8
		c0.9,1.5,1.9,2.9,2.8,4.4c0.9,1.3,2.4,1.3,3.2,0c0.1-0.1,0.2-0.2,0.2-0.4c5.1-8,10.3-16,15.4-24C193,174.2,193.7,169.1,192.6,163.7
		z M172.7,177.4c-5.1,0-9.2-4.2-9.2-9.3c0-5.1,4.2-9.2,9.2-9.2c5.1,0,9.2,4.2,9.2,9.2C182,173.3,177.8,177.4,172.7,177.4z"/>
	<path class="st1" d="M174.1,210.9c-6.9-0.1-12.5-0.6-17.9-2.1c-3-0.9-6-1.9-8.4-4c-0.8-0.7-1.6-1.6-2.1-2.5
		c-1.2-2.1-0.8-4.4,0.9-6.4c1.7-1.9,4-3.1,6.3-4c1.6-0.6,3.2-1,4.8-1.5c0.4-0.1,0.6,0,0.8,0.3c2.9,4.6,5.9,9.2,8.9,13.8
		c1.1,1.8,2.7,2.9,4.8,3c2.2,0.2,4.1-0.6,5.3-2.4c1.3-1.8,2.4-3.7,3.7-5.6c1.9-2.9,3.7-5.8,5.6-8.8c0.3-0.4,0.5-0.5,0.9-0.4
		c2.8,0.7,5.5,1.6,8,3c1.4,0.8,2.7,1.8,3.6,3.2c1.6,2.3,1.4,5-0.5,7.1c-1.6,1.7-3.6,2.9-5.7,3.8c-3.9,1.6-8,2.5-12.1,2.9
		C178.3,210.7,175.5,210.8,174.1,210.9z"/>
</g>
<text transform="matrix(1 0 0 1 278.2047 85.5067)" class="st3 st4 st5">GURGAON</text>
<text transform="matrix(1 0 0 1 622.6908 255.2079)" class="st3 st4 st5">GUWAHATI</text>
<text transform="matrix(1 0 0 1 69.6271 175.3143)" class="st3 st4 st5">MUMBAI</text>
<text transform="matrix(1 0 0 1 15.7432 223.759)" class="st3 st4 st5">BANGALORE</text>
</svg>
