<?xml version="1.0" encoding="utf-8"?>
<!-- Generator: Adobe Illustrator 23.0.1, SVG Export Plug-In . SVG Version: 6.00 Build 0)  -->
<svg version="1.1" id="Layer_1" xmlns="http://www.w3.org/2000/svg" xmlns:xlink="http://www.w3.org/1999/xlink" x="0px" y="0px"
	 viewBox="0 0 166.5 100" style="enable-background:new 0 0 166.5 100;" xml:space="preserve">
<style type="text/css">
	.st0{fill:#72BE49;}
	.st1{fill:#4D3181;}
	.st2{fill:#5D3D94;}
	.st3{fill:#F79955;}
	.st4{fill:url(#SVGID_1_);}
	.st5{fill:#FFFFFF;}
	.st6{clip-path:url(#SVGID_3_);fill:url(#SVGID_4_);}
</style>
<g>
	<g>
		<polygon class="st0" points="44.7,34 44.7,46.1 37.1,46.1 37.1,66.8 25.1,66.8 25.1,46.1 12.9,46.1 12.9,34 25.1,34 25.1,21.6 
			37.1,21.6 37.1,34 		"/>
		<rect x="12.9" y="68.6" class="st0" width="141.6" height="1.3"/>
		<rect x="12.9" y="68.6" class="st1" width="64.1" height="1.3"/>
		<g>
			<g>
				<path class="st0" d="M17.6,77.8v-2.5h-3.3v2.5H13v-6.1h1.3v2.6h3.3v-2.6h1.3v6.1H17.6z"/>
				<path class="st0" d="M25.1,77.8H20c0-2,0-4.1,0-6.1h5.1v1.1h-3.8v1.4h3.7v1.1h-3.7v1.4h3.8V77.8z"/>
				<path class="st0" d="M30.9,76.7h-3.5l-0.6,1.2h-1.4l3-6.1h1.4l3,6.1h-1.4L30.9,76.7z M29.1,73l-1.3,2.6h2.5L29.1,73z"/>
				<path class="st0" d="M34.8,71.7v5.1h3.5v1.1h-4.8v-6.1H34.8z"/>
				<path class="st0" d="M39.9,72.7h-2.1v-1c2,0,3.6,0,5.6,0v1h-2.1v5.1h-1.3V72.7z"/>
				<path class="st0" d="M48.7,77.8v-2.5h-3.3v2.5h-1.3v-6.1h1.3v2.6h3.3v-2.6H50v6.1H48.7z"/>
				<path class="st0" d="M57.1,77c-0.7,0.6-1.6,0.9-2.6,0.9c-2.5,0-3.6-1.6-3.6-3.2c0-1.6,1.1-3.2,3.6-3.2c0.9,0,1.8,0.3,2.5,0.9
					l-0.9,0.7c-0.4-0.4-1-0.6-1.6-0.6c-1.6,0-2.3,1.1-2.3,2.1c0,1,0.7,2.1,2.3,2.1c0.6,0,1.3-0.2,1.7-0.6L57.1,77z"/>
				<path class="st0" d="M62.4,76.7h-3.5l-0.6,1.2h-1.4l3-6.1h1.4l3,6.1h-1.4L62.4,76.7z M60.6,73l-1.3,2.6h2.5L60.6,73z"/>
				<path class="st0" d="M70.9,77.8h-1.5l-2-2h-1.2v2h-1.3v-6.1c1.1,0,2.1,0,3.2,0c1.6,0,2.4,1,2.4,2c0,0.8-0.4,1.7-1.7,1.9
					L70.9,77.8L70.9,77.8z M66.2,72.8v2h1.9c0.8,0,1.2-0.5,1.2-1c0-0.5-0.4-1-1.2-1H66.2z"/>
				<path class="st0" d="M76.5,77.8h-5.1c0-2,0-4.1,0-6.1h5.1v1.1h-3.8v1.4h3.7v1.1h-3.7v1.4h3.8V77.8z"/>
			</g>
			<g>
				<path class="st1" d="M81.6,72.7h-2.1v-1c2,0,3.6,0,5.6,0v1h-2.1v5.1h-1.3V72.7z"/>
				<path class="st1" d="M90.8,77.8h-5.1c0-2,0-4.1,0-6.1h5.1v1.1H87v1.4h3.7v1.1H87v1.4h3.8V77.8z"/>
				<path class="st1" d="M97.8,77c-0.7,0.6-1.6,0.9-2.6,0.9c-2.5,0-3.6-1.6-3.6-3.2c0-1.6,1.1-3.2,3.6-3.2c0.9,0,1.8,0.3,2.5,0.9
					l-0.9,0.7c-0.4-0.4-1-0.6-1.6-0.6c-1.6,0-2.3,1.1-2.3,2.1c0,1,0.7,2.1,2.3,2.1c0.6,0,1.3-0.2,1.7-0.6L97.8,77z"/>
				<path class="st1" d="M103.1,77.8v-2.5h-3.3v2.5h-1.3v-6.1h1.3v2.6h3.3v-2.6h1.3v6.1H103.1z"/>
				<path class="st1" d="M110,71.7h1.3v6.1h-0.8v0l-3.6-4.1v4.1h-1.3v-6.1h1l3.3,3.8V71.7z"/>
				<path class="st1" d="M119.2,74.8c0,1.6-1.1,3.2-3.5,3.2s-3.5-1.5-3.5-3.2c0-1.6,1.1-3.2,3.5-3.2
					C118.1,71.6,119.2,73.2,119.2,74.8z M113.5,74.8c0,1,0.6,2.1,2.2,2.1s2.2-1.1,2.2-2.1c0-1-0.6-2.2-2.2-2.2
					S113.5,73.8,113.5,74.8z"/>
				<path class="st1" d="M121.4,71.7v5.1h3.5v1.1h-4.8v-6.1H121.4z"/>
				<path class="st1" d="M132.3,74.8c0,1.6-1.1,3.2-3.5,3.2c-2.4,0-3.5-1.5-3.5-3.2c0-1.6,1.1-3.2,3.5-3.2
					C131.1,71.6,132.3,73.2,132.3,74.8z M126.6,74.8c0,1,0.6,2.1,2.2,2.1c1.6,0,2.2-1.1,2.2-2.1c0-1-0.6-2.2-2.2-2.2
					C127.2,72.6,126.5,73.8,126.6,74.8z"/>
				<path class="st1" d="M138.2,73.2c-0.5-0.4-1.1-0.6-1.7-0.6c-1.5,0-2.3,1-2.3,2.3c0,1,0.6,2,2.3,2c0.5,0,1-0.1,1.5-0.5v-1.1h-1.7
					v-1h2.9v2.6c-0.7,0.7-1.5,1.1-2.7,1.1c-2.5,0-3.6-1.5-3.6-3.1c0-1.7,1.2-3.3,3.6-3.3c0.9,0,1.8,0.3,2.5,0.9L138.2,73.2z"/>
				<path class="st1" d="M140.3,77.8v-6.1h1.3v6.1H140.3z"/>
				<path class="st1" d="M147.8,77.8h-5.1c0-2,0-4.1,0-6.1h5.1v1.1H144v1.4h3.7v1.1H144v1.4h3.8V77.8z"/>
				<path class="st1" d="M153.1,73.2c-0.2-0.3-0.9-0.7-1.6-0.7c-0.9,0-1.4,0.4-1.4,0.8c0,0.5,0.7,0.7,1.5,0.8
					c1.4,0.2,2.7,0.5,2.7,1.9c0,1.4-1.3,1.9-2.8,1.9c-1.4,0-2.4-0.4-2.9-1.5l1.1-0.5c0.3,0.7,1.1,1,1.9,1c0.8,0,1.6-0.3,1.6-0.9
					c0-0.6-0.7-0.8-1.6-0.9c-1.4-0.1-2.7-0.5-2.7-1.9c0-1.3,1.4-1.8,2.6-1.8c1.1,0,2.1,0.3,2.7,1.2L153.1,73.2z"/>
			</g>
		</g>
		<g>
			<polygon class="st2" points="87.1,29.8 87.1,38.7 99.6,38.7 99.6,47.8 87.1,47.8 87.1,57.7 100.7,57.7 100.7,66.8 77,66.8 77,21 
				100.7,21 100.7,29.8 			"/>
			<path class="st2" d="M154.4,20.6c0,0.1-0.1,0.3-0.1,0.4c-0.2,0.6-0.4,1.2-0.6,1.7c-1.5,4.2-3,8.4-4.5,12.5
				c-1.7,4.8-3.4,9.7-5.1,14.5c-0.1,0.3-0.2,0.7-0.2,1.1c0,5.3,0,10.6,0,15.9v0H134v-0.1c0-5.2,0-10.5,0-15.7c0-0.7-0.2-1.2-0.4-1.8
				c-2.1-6-4.2-12-6.4-17.9c-1.2-3.4-2.4-6.8-3.6-10.2h10.9c1.2,4.5,2.5,9.1,3.7,13.6c0.2,0.7,0.2,1.4,0.3,2.1
				c0.2,1.4,0.3,2.8,0.6,4.3c0-0.2,0.1-0.3,0.1-0.5c0.1-1.3,0.3-2.6,0.4-3.9c0.3-3,1.4-5.8,2.1-8.6c0.6-2.3,1.2-4.6,1.9-6.9
				c0,0,0-0.1,0-0.1c0.1-0.2,0.1-0.4,0.4-0.4c3.4,0,6.9,0,10.3,0C154.3,20.6,154.3,20.6,154.4,20.6"/>
			<path class="st2" d="M126.1,57.7v9.1h-21.5c0-15.2,0-30.5,0-45.7v0h10v36.6H126.1z"/>
			<path class="st2" d="M72.3,66.8H55.7c0-4,0-8,0-12.1c0-1.4-0.2-2.8-0.7-4.2c-0.8-2.2-2.4-3.5-4.6-4c-1.1-0.2-2.2-0.3-3.4-0.4
				c-0.4,0-0.7,0-1.2,0V33.9c0.8,0,1.5-0.1,2.3-0.1c2.4-0.2,4.5-0.9,6-2.9c0.7-0.9,0.9-2,1-3.2c0.1-1.2-0.1-2.3-0.5-3.4
				c-0.6-1.6-1.8-2.6-3.4-3.2c-1.4-0.5-2.8-0.7-4.2-0.7c-7.1,0-14.2,0-21.4,0h-0.5V5.2h0.4c7.4,0,14.8,0,22.1,0
				c2.1,0,4.2,0.2,6.2,0.5c4,0.5,7.6,2,10.8,4.4c3.5,2.7,5.7,6.1,6.6,10.4c0.4,1.9,0.6,3.9,0.5,5.9c-0.2,3-0.9,5.9-2.6,8.5
				c-1.1,1.6-2.4,3-3.8,4.3c-0.1,0.1-0.2,0.2-0.3,0.3c0.5,0.4,1,0.8,1.5,1.2c2.1,1.9,3.8,4.1,4.7,6.9c0.4,1.4,0.8,2.9,0.8,4.4
				c0.1,2.8,0.1,5.5,0.2,8.3C72.3,62.4,72.3,64.6,72.3,66.8"/>
		</g>
		<g>
			<g>
				<path class="st3" d="M50.2,24.4c0,0-0.9-3.9-6.8-0.7c0,0-5.4,2.3-12.2,9.7c0,0-4.4,4.4-5.3,5.7c-0.9,1.3-6.8,8.1-10.5,15.5
					c-3.7,7.4-2,10-2,10s1.6,2.8,6.1,0.4c0,0,4.2-2.4,5.6-3.8c0,0-10.2,6.1-7.8-2.2c2.4-8.3,8.6-15.8,8.6-15.8s5.4-7.6,12.1-12.2
					c6.6-4.6,7.6-4.3,9.1-4c1.5,0.3,2.6,2.9-0.2,7.8c-0.1,0.2-0.2,0.4-0.3,0.6c0.1,0,0.2,0.1,0.3,0.2c0.3-0.5,0.6-0.8,0.6-0.8
					s2.3-3.5,2.9-6.5C50.8,25.3,50.2,24.4,50.2,24.4"/>
				<path class="st3" d="M48,49c0,0,5.2,10.6-2.4,7.8c-7.6-2.8-14.4-9.5-14.4-9.5s-6.8-5.9-10.8-12.8c-3.9-6.9-3.6-7.9-3.3-9.4
					c0.4-1.5,2.8-2.4,7.3,0.6c4.5,3.1,0-0.6,0-0.6s-3.2-2.5-5.9-3.2c-2.8-0.7-3.6-0.2-3.6-0.2s-3.7,0.7-1.1,6.9
					c0,0,1.8,5.5,8.5,12.8c0,0,3.9,4.7,5.1,5.7c1.2,1,7.2,7.3,14,11.4c6.7,4.1,9.3,2.5,9.3,2.5s2.7-1.5,0.7-6.1
					C51.2,54.9,49.2,50.5,48,49"/>
				<g>
					<linearGradient id="SVGID_1_" gradientUnits="userSpaceOnUse" x1="28.7709" y1="34.8162" x2="32.7444" y2="34.8162">
						<stop  offset="0" style="stop-color:#FACC18"/>
						<stop  offset="1" style="stop-color:#EA7737"/>
					</linearGradient>
					<path class="st4" d="M28.8,34.8c0,1.1,0.9,2,2,2s2-0.9,2-2c0-1.1-0.9-2-2-2S28.8,33.7,28.8,34.8"/>
					<g>
						<path class="st5" d="M30.8,37.4c-1.4,0-2.6-1.2-2.6-2.6c0-1.4,1.2-2.6,2.6-2.6c1.4,0,2.6,1.2,2.6,2.6
							C33.4,36.2,32.2,37.4,30.8,37.4z M30.8,33.4c-0.8,0-1.4,0.6-1.4,1.4s0.6,1.4,1.4,1.4c0.8,0,1.4-0.6,1.4-1.4
							S31.5,33.4,30.8,33.4z"/>
					</g>
				</g>
			</g>
			<g>
				<g>
					<defs>
						<path id="SVGID_2_" d="M34.8,54.5c0,1.1,0.9,2,2,2s2-0.9,2-2c0-1.1-0.9-2-2-2S34.8,53.4,34.8,54.5"/>
					</defs>
					<clipPath id="SVGID_3_">
						<use xlink:href="#SVGID_2_"  style="overflow:visible;"/>
					</clipPath>
					
						<linearGradient id="SVGID_4_" gradientUnits="userSpaceOnUse" x1="-464.4224" y1="253.9487" x2="-462.907" y2="253.9487" gradientTransform="matrix(2.6233 0 0 -2.6233 1253.1481 720.6943)">
						<stop  offset="0" style="stop-color:#FACC18"/>
						<stop  offset="1" style="stop-color:#EA7737"/>
					</linearGradient>
					<rect x="34.8" y="52.5" class="st6" width="4" height="4"/>
				</g>
				<g>
					<path class="st5" d="M36.8,57.1c-1.4,0-2.6-1.2-2.6-2.6c0-1.4,1.2-2.6,2.6-2.6s2.6,1.2,2.6,2.6C39.4,55.9,38.2,57.1,36.8,57.1z
						 M36.8,53.1c-0.8,0-1.4,0.6-1.4,1.4s0.6,1.4,1.4,1.4c0.8,0,1.4-0.6,1.4-1.4S37.6,53.1,36.8,53.1z"/>
				</g>
			</g>
		</g>
		<rect x="25.1" y="24.2" class="st0" width="2.5" height="7.7"/>
	</g>
	<g>
		<path class="st2" d="M160.5,96.7H6.8c-1.6,0-2.9-1.3-2.9-2.9v-9.4c0-1.6,1.3-2.9,2.9-2.9h153.6c1.6,0,2.9,1.3,2.9,2.9v9.4
			C163.3,95.4,162,96.7,160.5,96.7z"/>
	</g>
</g>
<g>
	<path class="st5" d="M8.1,90.6c0.4,0.2,1,0.4,1.6,0.4c0.6,0,1-0.3,1-0.7c0-0.4-0.3-0.6-1-0.9c-1-0.4-1.7-0.9-1.7-1.8
		c0-1.1,0.9-1.9,2.3-1.9c0.7,0,1.2,0.1,1.6,0.3l-0.3,1.1c-0.2-0.1-0.7-0.3-1.3-0.3c-0.6,0-0.9,0.3-0.9,0.6c0,0.4,0.3,0.6,1.1,0.9
		c1.1,0.4,1.6,1,1.6,1.8c0,1-0.8,1.9-2.5,1.9c-0.7,0-1.4-0.2-1.8-0.4L8.1,90.6z"/>
	<path class="st5" d="M12.9,89c0-0.6,0-1.1,0-1.5h1.2l0.1,0.6h0c0.3-0.5,0.8-0.7,1.5-0.7c1,0,1.9,0.9,1.9,2.3c0,1.6-1,2.4-2,2.4
		c-0.5,0-1-0.2-1.2-0.5h0v2.2h-1.4V89z M14.3,90.1c0,0.1,0,0.2,0,0.3c0.1,0.4,0.4,0.7,0.8,0.7c0.6,0,1-0.5,1-1.3
		c0-0.7-0.3-1.3-0.9-1.3c-0.4,0-0.7,0.3-0.8,0.7c0,0.1,0,0.2,0,0.2V90.1z"/>
	<path class="st5" d="M19.5,90.2c0,0.6,0.6,0.9,1.3,0.9c0.5,0,0.9-0.1,1.2-0.2l0.2,0.9c-0.5,0.2-1,0.3-1.6,0.3
		c-1.5,0-2.4-0.9-2.4-2.3c0-1.1,0.7-2.4,2.3-2.4c1.5,0,2,1.1,2,2.2c0,0.2,0,0.5,0,0.6H19.5z M21.2,89.2c0-0.3-0.1-0.9-0.8-0.9
		c-0.6,0-0.8,0.5-0.9,0.9H21.2z"/>
	<path class="st5" d="M26.7,91.9c-0.2,0.1-0.7,0.2-1.2,0.2c-1.5,0-2.4-0.9-2.4-2.3c0-1.3,0.9-2.4,2.6-2.4c0.4,0,0.8,0.1,1.1,0.2
		l-0.2,1c-0.2-0.1-0.4-0.1-0.8-0.1c-0.7,0-1.2,0.5-1.2,1.3c0,0.8,0.6,1.3,1.2,1.3c0.3,0,0.6-0.1,0.8-0.1L26.7,91.9z"/>
	<path class="st5" d="M28.9,86.3c0,0.4-0.3,0.7-0.8,0.7c-0.4,0-0.7-0.3-0.7-0.7c0-0.4,0.3-0.7,0.7-0.7
		C28.6,85.5,28.9,85.8,28.9,86.3z M27.4,92v-4.5h1.4V92H27.4z"/>
	<path class="st5" d="M32.5,92l-0.1-0.5h0c-0.3,0.4-0.8,0.6-1.3,0.6c-0.9,0-1.5-0.7-1.5-1.4c0-1.2,1-1.7,2.6-1.7v-0.1
		c0-0.2-0.1-0.6-0.8-0.6c-0.5,0-0.9,0.2-1.2,0.3L30,87.8c0.3-0.2,0.9-0.4,1.7-0.4c1.5,0,2,0.9,2,1.9v1.6c0,0.4,0,0.8,0.1,1.1H32.5z
		 M32.3,89.9c-0.7,0-1.3,0.2-1.3,0.7c0,0.4,0.2,0.5,0.6,0.5c0.3,0,0.6-0.2,0.7-0.5c0-0.1,0-0.2,0-0.2V89.9z"/>
	<path class="st5" d="M34.8,85.5h1.4V92h-1.4V85.5z"/>
	<path class="st5" d="M38.8,86.3c0,0.4-0.3,0.7-0.8,0.7c-0.4,0-0.7-0.3-0.7-0.7c0-0.4,0.3-0.7,0.7-0.7
		C38.5,85.5,38.8,85.8,38.8,86.3z M37.3,92v-4.5h1.4V92H37.3z"/>
	<path class="st5" d="M39.5,91.2l1.4-1.8c0.3-0.3,0.5-0.5,0.7-0.8v0h-2v-1.1h3.7v0.8L42,90c-0.2,0.3-0.5,0.6-0.7,0.8v0h2.2V92h-3.9
		V91.2z"/>
	<path class="st5" d="M45.2,90.2c0,0.6,0.6,0.9,1.3,0.9c0.5,0,0.9-0.1,1.2-0.2l0.2,0.9c-0.5,0.2-1,0.3-1.6,0.3
		c-1.5,0-2.4-0.9-2.4-2.3c0-1.1,0.7-2.4,2.3-2.4c1.5,0,2,1.1,2,2.2c0,0.2,0,0.5,0,0.6H45.2z M46.8,89.2c0-0.3-0.1-0.9-0.8-0.9
		c-0.6,0-0.8,0.5-0.9,0.9H46.8z"/>
	<path class="st5" d="M53.3,85.5v5.2c0,0.5,0,1,0,1.3h-1.2L52,91.3h0c-0.3,0.5-0.8,0.8-1.4,0.8c-1.1,0-1.9-0.9-1.9-2.3
		c0-1.5,0.9-2.4,2-2.4c0.6,0,1,0.2,1.2,0.5h0v-2.4H53.3z M51.9,89.4c0-0.1,0-0.2,0-0.2c-0.1-0.4-0.4-0.7-0.8-0.7c-0.6,0-1,0.6-1,1.3
		c0,0.8,0.4,1.2,1,1.2c0.4,0,0.7-0.3,0.8-0.7c0-0.1,0-0.2,0-0.3V89.4z"/>
	<path class="st5" d="M57.7,86.3c0,0.4-0.3,0.7-0.8,0.7c-0.4,0-0.7-0.3-0.7-0.7c0-0.4,0.3-0.7,0.7-0.7S57.7,85.8,57.7,86.3z
		 M56.3,92v-4.5h1.4V92H56.3z"/>
	<path class="st5" d="M58.8,88.9c0-0.6,0-1,0-1.4H60l0.1,0.6h0c0.2-0.3,0.6-0.7,1.4-0.7c0.9,0,1.6,0.6,1.6,1.9V92h-1.4v-2.5
		c0-0.6-0.2-1-0.7-1c-0.4,0-0.6,0.3-0.7,0.5c0,0.1-0.1,0.2-0.1,0.3V92h-1.4V88.9z"/>
	<path class="st5" d="M67.5,85.8v2.4h2.3v-2.4h1.4V92h-1.4v-2.6h-2.3V92h-1.4v-6.2H67.5z"/>
	<path class="st5" d="M73.4,90.2c0,0.6,0.6,0.9,1.3,0.9c0.5,0,0.9-0.1,1.2-0.2l0.2,0.9c-0.5,0.2-1,0.3-1.6,0.3
		c-1.5,0-2.4-0.9-2.4-2.3c0-1.1,0.7-2.4,2.3-2.4c1.5,0,2,1.1,2,2.2c0,0.2,0,0.5,0,0.6H73.4z M75,89.2c0-0.3-0.1-0.9-0.8-0.9
		c-0.6,0-0.8,0.5-0.9,0.9H75z"/>
	<path class="st5" d="M79.7,92l-0.1-0.5h0c-0.3,0.4-0.8,0.6-1.3,0.6c-0.9,0-1.5-0.7-1.5-1.4c0-1.2,1-1.7,2.6-1.7v-0.1
		c0-0.2-0.1-0.6-0.8-0.6c-0.5,0-0.9,0.2-1.2,0.3l-0.3-0.9c0.3-0.2,0.9-0.4,1.7-0.4c1.5,0,2,0.9,2,1.9v1.6c0,0.4,0,0.8,0.1,1.1H79.7z
		 M79.5,89.9c-0.7,0-1.3,0.2-1.3,0.7c0,0.4,0.2,0.5,0.6,0.5c0.3,0,0.6-0.2,0.7-0.5c0-0.1,0-0.2,0-0.2V89.9z"/>
	<path class="st5" d="M82,85.5h1.4V92H82V85.5z"/>
	<path class="st5" d="M86.1,86.2v1.3h1v1h-1v1.6c0,0.5,0.1,0.8,0.6,0.8c0.2,0,0.3,0,0.4,0l0,1.1c-0.2,0.1-0.5,0.1-0.9,0.1
		c-0.4,0-0.8-0.2-1-0.4c-0.3-0.3-0.4-0.7-0.4-1.3v-1.8h-0.6v-1h0.6v-1L86.1,86.2z"/>
	<path class="st5" d="M87.9,85.5h1.4V88h0c0.1-0.2,0.3-0.3,0.6-0.5c0.2-0.1,0.5-0.2,0.7-0.2c0.9,0,1.6,0.6,1.6,2V92h-1.4v-2.5
		c0-0.6-0.2-1-0.7-1c-0.4,0-0.6,0.2-0.7,0.5c0,0.1,0,0.2,0,0.3V92h-1.4V85.5z"/>
	<path class="st5" d="M96.6,91.9c-0.2,0.1-0.7,0.2-1.2,0.2c-1.5,0-2.4-0.9-2.4-2.3c0-1.3,0.9-2.4,2.6-2.4c0.4,0,0.8,0.1,1.1,0.2
		l-0.2,1c-0.2-0.1-0.4-0.1-0.8-0.1c-0.7,0-1.2,0.5-1.2,1.3c0,0.8,0.6,1.3,1.2,1.3c0.3,0,0.6-0.1,0.8-0.1L96.6,91.9z"/>
	<path class="st5" d="M100,92l-0.1-0.5h0c-0.3,0.4-0.8,0.6-1.3,0.6c-0.9,0-1.5-0.7-1.5-1.4c0-1.2,1-1.7,2.6-1.7v-0.1
		c0-0.2-0.1-0.6-0.8-0.6c-0.5,0-0.9,0.2-1.2,0.3l-0.3-0.9c0.3-0.2,0.9-0.4,1.7-0.4c1.5,0,2,0.9,2,1.9v1.6c0,0.4,0,0.8,0.1,1.1H100z
		 M99.8,89.9c-0.7,0-1.3,0.2-1.3,0.7c0,0.4,0.2,0.5,0.6,0.5c0.3,0,0.6-0.2,0.7-0.5c0-0.1,0-0.2,0-0.2V89.9z"/>
	<path class="st5" d="M102.3,89c0-0.7,0-1.1,0-1.5h1.2l0,0.8h0c0.2-0.7,0.8-0.9,1.2-0.9c0.1,0,0.2,0,0.3,0v1.3c-0.1,0-0.2,0-0.4,0
		c-0.5,0-0.9,0.3-1,0.7c0,0.1,0,0.2,0,0.3V92h-1.4V89z"/>
	<path class="st5" d="M106.8,90.2c0,0.6,0.6,0.9,1.3,0.9c0.5,0,0.9-0.1,1.2-0.2l0.2,0.9c-0.5,0.2-1,0.3-1.6,0.3
		c-1.5,0-2.4-0.9-2.4-2.3c0-1.1,0.7-2.4,2.3-2.4c1.5,0,2,1.1,2,2.2c0,0.2,0,0.5,0,0.6H106.8z M108.4,89.2c0-0.3-0.1-0.9-0.8-0.9
		c-0.6,0-0.8,0.5-0.9,0.9H108.4z"/>
	<path class="st5" d="M113.9,85.8V92h-1.4v-6.2H113.9z"/>
	<path class="st5" d="M116.3,87h-1.7v-1.2h4.8V87h-1.7v5h-1.4V87z"/>
	<path class="st5" d="M122,90.6c0.4,0.2,1,0.4,1.6,0.4c0.6,0,1-0.3,1-0.7c0-0.4-0.3-0.6-1-0.9c-1-0.4-1.7-0.9-1.7-1.8
		c0-1.1,0.9-1.9,2.3-1.9c0.7,0,1.2,0.1,1.6,0.3l-0.3,1.1c-0.2-0.1-0.7-0.3-1.3-0.3c-0.6,0-0.9,0.3-0.9,0.6c0,0.4,0.3,0.6,1.1,0.9
		c1.1,0.4,1.6,1,1.6,1.8c0,1-0.8,1.9-2.5,1.9c-0.7,0-1.4-0.2-1.8-0.4L122,90.6z"/>
	<path class="st5" d="M131.4,89.7c0,1.6-1.2,2.4-2.4,2.4c-1.3,0-2.3-0.9-2.3-2.3s1-2.4,2.4-2.4C130.5,87.4,131.4,88.3,131.4,89.7z
		 M128.1,89.7c0,0.8,0.3,1.4,0.9,1.4c0.5,0,0.9-0.5,0.9-1.4c0-0.7-0.3-1.3-0.9-1.3C128.4,88.4,128.1,89.1,128.1,89.7z"/>
	<path class="st5" d="M132.2,85.5h1.4V92h-1.4V85.5z"/>
	<path class="st5" d="M139,90.6c0,0.6,0,1.1,0,1.4h-1.2l-0.1-0.6h0c-0.2,0.3-0.6,0.7-1.4,0.7c-0.9,0-1.6-0.6-1.6-2v-2.6h1.4v2.4
		c0,0.7,0.2,1,0.7,1c0.4,0,0.6-0.3,0.7-0.5c0-0.1,0-0.2,0-0.3v-2.7h1.4V90.6z"/>
	<path class="st5" d="M141.7,86.2v1.3h1v1h-1v1.6c0,0.5,0.1,0.8,0.6,0.8c0.2,0,0.3,0,0.4,0l0,1.1c-0.2,0.1-0.5,0.1-0.9,0.1
		c-0.4,0-0.8-0.2-1-0.4c-0.3-0.3-0.4-0.7-0.4-1.3v-1.8h-0.6v-1h0.6v-1L141.7,86.2z"/>
	<path class="st5" d="M144.9,86.3c0,0.4-0.3,0.7-0.8,0.7c-0.4,0-0.7-0.3-0.7-0.7c0-0.4,0.3-0.7,0.7-0.7
		C144.6,85.5,144.9,85.8,144.9,86.3z M143.5,92v-4.5h1.4V92H143.5z"/>
	<path class="st5" d="M150.4,89.7c0,1.6-1.2,2.4-2.4,2.4c-1.3,0-2.3-0.9-2.3-2.3s1-2.4,2.4-2.4C149.5,87.4,150.4,88.3,150.4,89.7z
		 M147.2,89.7c0,0.8,0.3,1.4,0.9,1.4c0.5,0,0.9-0.5,0.9-1.4c0-0.7-0.3-1.3-0.9-1.3C147.4,88.4,147.2,89.1,147.2,89.7z"/>
	<path class="st5" d="M151.3,88.9c0-0.6,0-1,0-1.4h1.2l0.1,0.6h0c0.2-0.3,0.6-0.7,1.4-0.7c0.9,0,1.6,0.6,1.6,1.9V92h-1.4v-2.5
		c0-0.6-0.2-1-0.7-1c-0.4,0-0.6,0.3-0.7,0.5c0,0.1-0.1,0.2-0.1,0.3V92h-1.4V88.9z"/>
	<path class="st5" d="M156.7,90.8c0.3,0.2,0.8,0.3,1.2,0.3c0.4,0,0.6-0.1,0.6-0.4s-0.1-0.3-0.7-0.5c-0.9-0.3-1.3-0.8-1.3-1.4
		c0-0.8,0.7-1.5,1.8-1.5c0.5,0,1,0.1,1.3,0.3l-0.2,1c-0.2-0.1-0.6-0.3-1-0.3c-0.3,0-0.5,0.1-0.5,0.4c0,0.2,0.2,0.3,0.7,0.5
		c0.9,0.3,1.2,0.7,1.2,1.4c0,0.8-0.7,1.5-1.9,1.5c-0.6,0-1.1-0.1-1.5-0.3L156.7,90.8z"/>
</g>
</svg>
