<?xml version="1.0" encoding="UTF-8" standalone="no" ?>
<!DOCTYPE svg PUBLIC "-//W3C//DTD SVG 1.1//EN" "http://www.w3.org/Graphics/SVG/1.1/DTD/svg11.dtd">
<svg xmlns="http://www.w3.org/2000/svg" xmlns:xlink="http://www.w3.org/1999/xlink" version="1.1" width="800" height="800" viewBox="0 0 800 800" xml:space="preserve">
<desc>Created with Fabric.js 4.6.0</desc>
<defs>
</defs>
<g transform="matrix(0.87 0 0 0.87 400 463.91)" id="XwFxyMwnJQTA1lAsEA5tY"  >
<g style="" vector-effect="non-scaling-stroke"   >
		<g transform="matrix(1 0 0 1 43.16 35.49)" id="s9JcKxQeUib5Az_A_D5qZ"  >
<path style="stroke: none; stroke-width: 1; stroke-dasharray: none; stroke-linecap: butt; stroke-dashoffset: 0; stroke-linejoin: miter; stroke-miterlimit: 4; fill: rgb(82,84,89); fill-rule: nonzero; opacity: 1;" vector-effect="non-scaling-stroke"  transform=" translate(-343.16, -335.49)" d="M 192.139 100.71 C 192.139 104.814 188.81400000000002 108.139 184.71 108.139 C 180.606 108.139 177.281 104.813 177.281 100.71 C 177.281 96.607 180.606 93.28899999999999 184.71 93.28899999999999 C 188.813 93.289 192.139 96.606 192.139 100.71 z M 224.325 93.289 C 220.22199999999998 93.289 216.896 96.607 216.896 100.71000000000001 C 216.896 104.81400000000001 220.22199999999998 108.13900000000001 224.325 108.13900000000001 C 228.421 108.13900000000001 231.754 104.81300000000002 231.754 100.71000000000001 C 231.753 96.606 228.42 93.289 224.325 93.289 z M 263.94 93.289 C 259.829 93.289 256.504 96.607 256.504 100.71000000000001 C 256.504 104.81400000000001 259.829 108.13900000000001 263.94 108.13900000000001 C 268.036 108.13900000000001 271.361 104.81300000000002 271.361 100.71000000000001 C 271.361 96.606 268.036 93.289 263.94 93.289 z M 303.547 93.289 C 299.452 93.289 296.119 96.607 296.119 100.71000000000001 C 296.119 104.81400000000001 299.45200000000006 108.13900000000001 303.547 108.13900000000001 C 307.65000000000003 108.13900000000001 310.976 104.81300000000002 310.976 100.71000000000001 C 310.976 96.606 307.65 93.289 303.547 93.289 z M 145.095 129.433 C 140.992 129.433 137.666 132.751 137.666 136.85399999999998 C 137.666 140.957 140.992 144.29 145.095 144.29 C 149.191 144.29 152.524 140.957 152.524 136.85399999999998 C 152.524 132.751 149.191 129.433 145.095 129.433 z M 184.71 129.433 C 180.606 129.433 177.281 132.751 177.281 136.85399999999998 C 177.281 140.957 180.606 144.29 184.71 144.29 C 188.81300000000002 144.29 192.139 140.957 192.139 136.85399999999998 C 192.139 132.751 188.813 129.433 184.71 129.433 z M 224.325 129.433 C 220.22199999999998 129.433 216.896 132.751 216.896 136.85399999999998 C 216.896 140.957 220.22199999999998 144.29 224.325 144.29 C 228.421 144.29 231.754 140.957 231.754 136.85399999999998 C 231.753 132.751 228.42 129.433 224.325 129.433 z M 263.94 129.433 C 259.829 129.433 256.504 132.751 256.504 136.85399999999998 C 256.504 140.957 259.829 144.29 263.94 144.29 C 268.036 144.29 271.361 140.957 271.361 136.85399999999998 C 271.361 132.751 268.036 129.433 263.94 129.433 z M 303.547 129.433 C 299.452 129.433 296.119 132.751 296.119 136.85399999999998 C 296.119 140.957 299.45200000000006 144.29 303.547 144.29 C 307.65000000000003 144.29 310.976 140.957 310.976 136.85399999999998 C 310.976 132.751 307.65 129.433 303.547 129.433 z M 343.154 129.433 C 339.065 129.433 335.74 132.751 335.74 136.85399999999998 C 335.74 140.957 339.065 144.29 343.154 144.29 C 347.264 144.29 350.59 140.957 350.59 136.85399999999998 C 350.591 132.751 347.265 129.433 343.154 129.433 z M 105.48 165.578 C 101.384 165.578 98.051 168.911 98.051 173.01500000000001 C 98.051 177.11900000000003 101.384 180.44400000000002 105.48 180.44400000000002 C 109.583 180.44400000000002 112.909 177.11900000000003 112.909 173.01500000000001 C 112.909 168.911 109.583 165.578 105.48 165.578 z M 145.095 165.578 C 140.992 165.578 137.666 168.911 137.666 173.01500000000001 C 137.666 177.11900000000003 140.992 180.44400000000002 145.095 180.44400000000002 C 149.191 180.44400000000002 152.524 177.11900000000003 152.524 173.01500000000001 C 152.524 168.911 149.191 165.578 145.095 165.578 z M 184.71 165.578 C 180.606 165.578 177.281 168.911 177.281 173.01500000000001 C 177.281 177.11900000000003 180.606 180.44400000000002 184.71 180.44400000000002 C 188.81300000000002 180.44400000000002 192.139 177.11900000000003 192.139 173.01500000000001 C 192.139 168.911 188.813 165.578 184.71 165.578 z M 224.325 165.578 C 220.22199999999998 165.578 216.896 168.911 216.896 173.01500000000001 C 216.896 177.11900000000003 220.22199999999998 180.44400000000002 224.325 180.44400000000002 C 228.421 180.44400000000002 231.754 177.11900000000003 231.754 173.01500000000001 C 231.753 168.911 228.42 165.578 224.325 165.578 z M 263.94 165.578 C 259.829 165.578 256.504 168.911 256.504 173.01500000000001 C 256.504 174.22600000000003 256.79900000000004 175.365 257.314 176.376 C 261.67400000000004 174.014 266.09200000000004 171.78 270.56100000000004 169.672 C 269.337 167.246 266.835 165.578 263.94 165.578 z M 105.48 201.738 C 101.384 201.738 98.051 205.056 98.051 209.159 C 98.051 213.263 101.384 216.588 105.48 216.588 C 109.583 216.588 112.909 213.263 112.909 209.159 C 112.909 205.056 109.583 201.738 105.48 201.738 z M 145.095 201.738 C 140.992 201.738 137.666 205.056 137.666 209.159 C 137.666 213.263 140.992 216.588 145.095 216.588 C 149.191 216.588 152.524 213.263 152.524 209.159 C 152.524 205.056 149.191 201.738 145.095 201.738 z M 184.71 201.738 C 180.606 201.738 177.281 205.056 177.281 209.159 C 177.281 213.263 180.606 216.588 184.71 216.588 C 188.81300000000002 216.588 192.139 213.263 192.139 209.159 C 192.139 205.056 188.813 201.738 184.71 201.738 z M 105.48 237.882 C 101.384 237.882 98.051 241.20000000000002 98.051 245.303 C 98.051 249.399 101.384 252.732 105.48 252.732 C 109.583 252.732 112.909 249.399 112.909 245.303 C 112.909 241.2 109.583 237.882 105.48 237.882 z M 145.095 237.882 C 140.992 237.882 137.666 241.20000000000002 137.666 245.303 C 137.666 249.399 140.992 252.732 145.095 252.732 C 149.191 252.732 152.524 249.399 152.524 245.303 C 152.524 241.2 149.191 237.882 145.095 237.882 z M 105.48 274.027 C 101.384 274.027 98.051 277.34499999999997 98.051 281.448 C 98.051 285.544 101.384 288.87699999999995 105.48 288.87699999999995 C 109.583 288.87699999999995 112.909 285.5439999999999 112.909 281.448 C 112.909 277.345 109.583 274.027 105.48 274.027 z M 145.095 274.027 C 140.992 274.027 137.666 277.34499999999997 137.666 281.448 C 137.666 285.39599999999996 140.759 288.62699999999995 144.65699999999998 288.85499999999996 C 146.67999999999998 284.84999999999997 148.80899999999997 280.905 151.051 277.02599999999995 C 149.695 275.208 147.534 274.027 145.095 274.027 z M 105.48 310.164 C 101.384 310.164 98.051 313.489 98.051 317.59299999999996 C 98.051 321.69599999999997 101.384 325.02899999999994 105.48 325.02899999999994 C 109.583 325.02899999999994 112.909 321.6959999999999 112.909 317.59299999999996 C 112.909 313.489 109.583 310.164 105.48 310.164 z M 541.214 345.942 C 537.125 345.942 533.8000000000001 349.283 533.8000000000001 353.386 C 533.8000000000001 357.49 537.1250000000001 360.807 541.214 360.807 C 545.3320000000001 360.807 548.657 357.49 548.657 353.386 C 548.657 349.283 545.332 345.942 541.214 345.942 z M 580.844 360.808 C 584.947 360.808 588.273 357.491 588.273 353.387 C 588.273 349.284 584.948 345.943 580.844 345.943 C 576.725 345.943 573.407 349.284 573.407 353.387 C 573.407 357.49 576.725 360.808 580.844 360.808 z M 501.614 382.103 C 500.138 382.103 498.768 382.538 497.61199999999997 383.279 C 496.44199999999995 386.127 495.43699999999995 389.053 494.635 392.06 C 495.671 394.914 498.4 396.953 501.614 396.953 C 505.717 396.953 509.04299999999995 393.635 509.04299999999995 389.53099999999995 C 509.043 385.428 505.717 382.103 501.614 382.103 z M 541.214 382.103 C 537.125 382.103 533.8000000000001 385.428 533.8000000000001 389.532 C 533.8000000000001 393.635 537.1250000000001 396.954 541.214 396.954 C 545.3320000000001 396.954 548.657 393.636 548.657 389.532 C 548.657 385.428 545.332 382.103 541.214 382.103 z M 580.844 382.103 C 576.725 382.103 573.407 385.428 573.407 389.532 C 573.407 393.635 576.724 396.954 580.844 396.954 C 584.947 396.954 588.273 393.636 588.273 389.532 C 588.272 385.428 584.947 382.103 580.844 382.103 z M 501.614 418.248 C 497.51 418.248 494.18399999999997 421.573 494.18399999999997 425.67699999999996 C 494.18399999999997 429.77299999999997 497.51 433.09799999999996 501.614 433.09799999999996 C 505.717 433.09799999999996 509.04299999999995 429.77299999999997 509.04299999999995 425.67699999999996 C 509.043 421.573 505.717 418.248 501.614 418.248 z M 541.214 418.248 C 537.125 418.248 533.8000000000001 421.573 533.8000000000001 425.67699999999996 C 533.8000000000001 429.77299999999997 537.1250000000001 433.09799999999996 541.214 433.09799999999996 C 545.3320000000001 433.09799999999996 548.657 429.77299999999997 548.657 425.67699999999996 C 548.657 421.573 545.332 418.248 541.214 418.248 z M 580.844 418.248 C 576.725 418.248 573.407 421.573 573.407 425.67699999999996 C 573.407 429.77299999999997 576.724 433.09799999999996 580.844 433.09799999999996 C 584.947 433.09799999999996 588.273 429.77299999999997 588.273 425.67699999999996 C 588.272 421.573 584.947 418.248 580.844 418.248 z M 501.614 454.393 C 497.51 454.393 494.18399999999997 457.71799999999996 494.18399999999997 461.82199999999995 C 494.18399999999997 465.91799999999995 497.51 469.24299999999994 501.614 469.24299999999994 C 505.717 469.24299999999994 509.04299999999995 465.91799999999995 509.04299999999995 461.82199999999995 C 509.043 457.718 505.717 454.393 501.614 454.393 z M 541.214 454.393 C 537.125 454.393 533.8000000000001 457.71799999999996 533.8000000000001 461.82199999999995 C 533.8000000000001 465.91799999999995 537.1250000000001 469.24299999999994 541.214 469.24299999999994 C 545.3320000000001 469.24299999999994 548.657 465.91799999999995 548.657 461.82199999999995 C 548.657 457.718 545.332 454.393 541.214 454.393 z M 580.844 454.393 C 576.725 454.393 573.407 457.71799999999996 573.407 461.82199999999995 C 573.407 465.91799999999995 576.724 469.24299999999994 580.844 469.24299999999994 C 584.947 469.24299999999994 588.273 465.91799999999995 588.273 461.82199999999995 C 588.272 457.718 584.947 454.393 580.844 454.393 z M 461.999 490.529 C 457.89500000000004 490.529 454.57000000000005 493.862 454.57000000000005 497.965 C 454.57000000000005 502.06899999999996 457.89500000000004 505.39399999999995 461.999 505.39399999999995 C 465.15700000000004 505.39399999999995 467.848 503.41999999999996 468.923 500.64199999999994 C 469.005 500.38899999999995 469.089 500.13599999999997 469.169 499.88199999999995 C 469.332 499.2699999999999 469.428 498.62899999999996 469.428 497.965 C 469.428 493.862 466.102 490.529 461.999 490.529 z M 501.614 490.529 C 497.51 490.529 494.18399999999997 493.862 494.18399999999997 497.965 C 494.18399999999997 502.06899999999996 497.51 505.39399999999995 501.614 505.39399999999995 C 505.717 505.39399999999995 509.04299999999995 502.06899999999996 509.04299999999995 497.965 C 509.043 493.862 505.717 490.529 501.614 490.529 z M 541.214 490.529 C 537.125 490.529 533.8000000000001 493.862 533.8000000000001 497.965 C 533.8000000000001 502.06899999999996 537.1250000000001 505.39399999999995 541.214 505.39399999999995 C 545.3320000000001 505.39399999999995 548.657 502.06899999999996 548.657 497.965 C 548.657 493.862 545.332 490.529 541.214 490.529 z M 580.844 490.529 C 576.725 490.529 573.407 493.862 573.407 497.965 C 573.407 502.06899999999996 576.724 505.39399999999995 580.844 505.39399999999995 C 584.947 505.39399999999995 588.273 502.06899999999996 588.273 497.965 C 588.272 493.862 584.947 490.529 580.844 490.529 z M 343.154 526.682 C 339.05 526.682 335.74 530.006 335.74 534.125 C 335.74 538.229 339.051 541.547 343.154 541.547 C 347.257 541.547 350.59 538.229 350.59 534.125 C 350.591 530.006 347.257 526.682 343.154 526.682 z M 383.249 526.706 C 382.47700000000003 526.787 381.702 526.855 380.927 526.921 C 377.71700000000004 527.7420000000001 375.34000000000003 530.6460000000001 375.34000000000003 534.125 C 375.34000000000003 535.58 375.76500000000004 536.934 376.48800000000006 538.078 C 377.80300000000005 540.161 380.12100000000004 541.547 382.76800000000003 541.547 C 383.87500000000006 541.547 384.922 541.299 385.867 540.865 C 388.421 539.692 390.197 537.121 390.197 534.125 C 390.197 530.169 387.128 526.955 383.249 526.706 z M 422.384 526.682 C 418.281 526.682 414.95500000000004 530.006 414.95500000000004 534.125 C 414.95500000000004 537.832 417.672 540.89 421.22200000000004 541.447 C 421.60100000000006 541.506 421.98800000000006 541.547 422.384 541.547 C 423.971 541.547 425.439 541.046 426.646 540.2 C 428.559 538.8580000000001 429.813 536.6410000000001 429.813 534.125 C 429.813 530.006 426.487 526.682 422.384 526.682 z M 461.999 526.682 C 457.89500000000004 526.682 454.57000000000005 530.006 454.57000000000005 534.125 C 454.57000000000005 538.229 457.89500000000004 541.547 461.999 541.547 C 466.10200000000003 541.547 469.428 538.229 469.428 534.125 C 469.428 530.006 466.102 526.682 461.999 526.682 z M 501.614 526.682 C 497.51 526.682 494.18399999999997 530.006 494.18399999999997 534.125 C 494.18399999999997 538.229 497.51 541.547 501.614 541.547 C 505.717 541.547 509.04299999999995 538.229 509.04299999999995 534.125 C 509.043 530.006 505.717 526.682 501.614 526.682 z M 541.214 526.682 C 537.125 526.682 533.8000000000001 530.006 533.8000000000001 534.125 C 533.8000000000001 538.229 537.1250000000001 541.547 541.214 541.547 C 545.3320000000001 541.547 548.657 538.229 548.657 534.125 C 548.657 530.006 545.332 526.682 541.214 526.682 z M 382.769 562.842 C 378.666 562.842 375.34000000000003 566.1659999999999 375.34000000000003 570.27 C 375.34000000000003 574.374 378.66600000000005 577.692 382.769 577.692 C 386.873 577.692 390.198 574.374 390.198 570.27 C 390.197 566.166 386.872 562.842 382.769 562.842 z M 422.384 562.842 C 418.281 562.842 414.95500000000004 566.1659999999999 414.95500000000004 570.27 C 414.95500000000004 574.374 418.28000000000003 577.692 422.384 577.692 C 426.488 577.692 429.813 574.374 429.813 570.27 C 429.813 566.166 426.487 562.842 422.384 562.842 z M 461.999 562.842 C 457.89500000000004 562.842 454.57000000000005 566.1659999999999 454.57000000000005 570.27 C 454.57000000000005 574.374 457.89500000000004 577.692 461.999 577.692 C 466.10200000000003 577.692 469.428 574.374 469.428 570.27 C 469.428 566.166 466.102 562.842 461.999 562.842 z M 501.614 562.842 C 497.51 562.842 494.18399999999997 566.1659999999999 494.18399999999997 570.27 C 494.18399999999997 574.374 497.51 577.692 501.614 577.692 C 505.717 577.692 509.04299999999995 574.374 509.04299999999995 570.27 C 509.043 566.166 505.717 562.842 501.614 562.842 z" stroke-linecap="round" />
</g>
		<g transform="matrix(1 0 0 1 33.42 -18.2)" id="NPJtWJIJrjoKPawEnbPPZ"  >
<path style="stroke: none; stroke-width: 1; stroke-dasharray: none; stroke-linecap: butt; stroke-dashoffset: 0; stroke-linejoin: miter; stroke-miterlimit: 4; fill: rgb(141,100,232); fill-rule: nonzero; opacity: 1;" vector-effect="non-scaling-stroke"  transform=" translate(-333.42, -281.8)" d="M 570.577 282.737 C 570.577 283.34200000000004 570.56 283.944 570.545 284.547 C 569.885 310.81300000000005 554.8919999999999 334.66900000000004 531.3979999999999 346.629 C 515.9789999999999 354.469 504.0799999999999 367.545 497.61299999999994 383.278 C 496.4429999999999 386.12600000000003 495.43799999999993 389.052 494.63599999999997 392.059 C 494.30899999999997 393.28700000000003 494.00699999999995 394.526 493.74399999999997 395.778 L 485.643 434.355 C 483.16999999999996 446.12600000000003 479.03499999999997 457.043 473.565 466.957 C 454.94 500.712 420.751 522.769 383.25 526.706 C 382.478 526.787 381.703 526.855 380.928 526.921 C 372.04 527.6740000000001 362.984 527.4090000000001 353.917 526.041 C 344.42499999999995 524.609 334.923 521.9770000000001 325.59799999999996 518.0310000000001 L 315.63699999999994 513.8220000000001 C 288.5919999999999 502.37400000000014 257.48099999999994 506.4010000000001 234.23299999999995 524.3390000000002 C 208.22099999999995 544.4210000000002 173.87099999999995 546.2950000000002 146.54099999999994 531.8790000000001 L 194.83999999999995 485.67000000000013 C 196.39599999999996 484.1750000000001 196.44899999999996 481.7040000000001 194.96199999999996 480.14800000000014 C 193.46699999999996 478.58500000000015 190.98799999999997 478.53200000000015 189.43999999999997 480.0260000000001 L 139.56599999999997 527.7420000000001 C 134.47899999999998 524.3670000000001 129.71499999999997 520.373 125.38399999999997 515.773 L 140.42799999999997 500.726 C 141.95299999999997 499.201 141.95299999999997 496.73 140.42799999999997 495.205 C 138.90299999999996 493.68 136.43099999999998 493.68 134.90599999999998 495.205 L 120.28199999999998 509.83099999999996 C 96.54099999999998 479.44499999999994 89.86399999999998 439.03999999999996 102.62799999999999 402.61199999999997 L 132.44199999999998 317.532 C 135.89499999999998 307.68199999999996 139.98399999999998 298.108 144.65699999999998 288.85499999999996 C 146.67999999999998 284.84999999999997 148.80899999999997 280.905 151.051 277.02599999999995 C 165.494 252.03399999999996 184.408 229.75399999999996 206.981 211.36299999999994 L 215.905 204.10199999999995 C 228.928 193.49399999999994 242.8 184.23699999999994 257.313 176.37499999999994 C 261.673 174.01299999999995 266.091 171.77899999999994 270.56 169.67099999999994 C 299.964 155.79999999999993 331.626 147.44199999999995 363.942 144.95699999999994 C 391.276 142.85499999999993 419.07800000000003 144.94999999999993 446.37800000000004 151.47599999999994 L 471.783 157.54699999999994 C 529.712 171.398 570.577 223.177 570.577 282.737 z M 404.552 99.276 C 414.391 101.79299999999999 425.94500000000005 101.541 438.927 97.369 C 493.072 79.97200000000001 439.743 25.269999999999996 408.51800000000003 22.555000000000007 C 352.139 17.659 357.554 87.294 404.552 99.276 z" stroke-linecap="round" />
</g>
		<g transform="matrix(1 0 0 1 0 24.66)" id="OaQCLkmpdAIzWr6GKGt8-"  >
<path style="stroke: none; stroke-width: 1; stroke-dasharray: none; stroke-linecap: butt; stroke-dashoffset: 0; stroke-linejoin: miter; stroke-miterlimit: 4; fill: rgb(217,206,238); fill-rule: nonzero; opacity: 1;" vector-effect="non-scaling-stroke"  transform=" translate(-300, -324.66)" d="M 473.564 466.957 C 473.636 478.409 472.377 489.678 469.168 499.883 C 469.331 499.27099999999996 469.427 498.63 469.427 497.966 C 469.427 493.863 466.10200000000003 490.53000000000003 461.99800000000005 490.53000000000003 C 457.89400000000006 490.53000000000003 454.5690000000001 493.86300000000006 454.5690000000001 497.966 C 454.5690000000001 502.07 457.89400000000006 505.395 461.99800000000005 505.395 C 465.15600000000006 505.395 467.84700000000004 503.421 468.922 500.643 C 463.21000000000004 518.18 451.63300000000004 532.4739999999999 430.971 538.961 C 429.525 539.415 428.082 539.8240000000001 426.645 540.2 C 428.558 538.8580000000001 429.81199999999995 536.6410000000001 429.81199999999995 534.125 C 429.81199999999995 530.006 426.48699999999997 526.682 422.383 526.682 C 418.279 526.682 414.954 530.006 414.954 534.125 C 414.954 537.832 417.671 540.89 421.221 541.447 C 408.935 543.865 397.044 543.497 385.867 540.865 C 388.421 539.692 390.197 537.121 390.197 534.125 C 390.197 530.169 387.128 526.955 383.249 526.706 C 420.75 522.769 454.939 500.712 473.564 466.957 z M 353.916 526.041 C 360.901 531.094 368.469 535.1790000000001 376.488 538.0780000000001 C 375.764 536.9330000000001 375.34 535.58 375.34 534.1250000000001 C 375.34 530.6460000000001 377.717 527.7420000000001 380.92699999999996 526.9210000000002 C 372.039 527.674 362.982 527.409 353.916 526.041 z M 587.266 161.825 C 566.86 126.29999999999998 538.8019999999999 110.72999999999999 507.828 107.10999999999999 L 509.517 120.29599999999999 L 532.512 123.24799999999999 C 534.2739999999999 123.47699999999999 535.6619999999999 124.865 535.891 126.627 L 538.828 149.615 L 561.8389999999999 152.567 C 563.593 152.79600000000002 564.982 154.184 565.2099999999999 155.946 L 568.5509999999999 181.947 C 568.8249999999999 184.083 567.3159999999999 186.043 565.1719999999999 186.318 C 565.0039999999999 186.341 564.8369999999999 186.348 564.6769999999999 186.348 C 562.7389999999999 186.348 561.0619999999999 184.91400000000002 560.8019999999999 182.93900000000002 L 557.8499999999999 159.93600000000004 L 534.8389999999999 156.98400000000004 C 533.077 156.75500000000002 531.6899999999999 155.36700000000005 531.468 153.60600000000005 L 528.525 130.61800000000005 L 505.529 127.66600000000005 C 503.767 127.43700000000005 502.379 126.04900000000005 502.15 124.28800000000005 L 499.86699999999996 106.44600000000005 C 455.114 104.10600000000005 405.265 124.61300000000006 363.94499999999994 144.95900000000006 C 391.27899999999994 142.85700000000006 419.08099999999996 144.95200000000006 446.381 151.47800000000007 L 471.78599999999994 157.54900000000006 C 529.7139999999999 171.40000000000006 570.579 223.18000000000006 570.579 282.74000000000007 C 570.579 283.3450000000001 570.5619999999999 283.94700000000006 570.5469999999999 284.55000000000007 C 573.7439999999999 281.2970000000001 576.8649999999999 277.89000000000004 579.9449999999999 274.36500000000007 C 604.396 246.379 606.059 194.545 587.266 161.825 z M 55.645 336.173 C 48.964000000000006 336.027 42.870000000000005 336.821 37.386 338.392 C -17.994 354.173 -11.472999999999999 446.911 54.486000000000004 425.639 C 100.934 410.658 118.248 337.553 55.645 336.173 z" stroke-linecap="round" />
</g>
		<g transform="matrix(1 0 0 1 24.35 19.09)" id="PRMCQafFSkeXU5Xqwb_v3"  >
<path style="stroke: none; stroke-width: 1; stroke-dasharray: none; stroke-linecap: butt; stroke-dashoffset: 0; stroke-linejoin: miter; stroke-miterlimit: 4; fill: rgb(128,130,133); fill-rule: nonzero; opacity: 1;" vector-effect="non-scaling-stroke"  transform=" translate(-324.35, -319.09)" d="M 565.17 186.316 C 565.002 186.339 564.8349999999999 186.346 564.675 186.346 C 562.737 186.346 561.06 184.912 560.8 182.937 L 557.848 159.93400000000003 L 534.837 156.98200000000003 C 533.075 156.75300000000001 531.688 155.36500000000004 531.466 153.60400000000004 L 528.523 130.61600000000004 L 505.52700000000004 127.66400000000004 C 503.76500000000004 127.43500000000004 502.37700000000007 126.04700000000004 502.148 124.28600000000004 L 499.865 106.44400000000005 L 498.82300000000004 98.30000000000004 C 498.54900000000004 96.16500000000003 500.05800000000005 94.20400000000004 502.20200000000006 93.93000000000004 C 504.37600000000003 93.65600000000003 506.29800000000006 95.17300000000003 506.57200000000006 97.30900000000004 L 507.82800000000003 107.11100000000005 L 509.51700000000005 120.29700000000005 L 532.5120000000001 123.24900000000005 C 534.274 123.47800000000005 535.662 124.86600000000006 535.8910000000001 126.62800000000006 L 538.8280000000001 149.61600000000004 L 561.839 152.56800000000004 C 563.5930000000001 152.79700000000005 564.9820000000001 154.18500000000003 565.21 155.94700000000003 L 568.551 181.94800000000004 C 568.823 184.081 567.313 186.041 565.17 186.316 z M 140.427 500.727 C 141.952 499.202 141.952 496.731 140.427 495.20599999999996 C 138.902 493.681 136.43 493.681 134.905 495.20599999999996 L 120.281 509.83199999999994 L 96.129 533.9889999999999 C 94.604 535.5139999999999 94.604 537.9849999999999 96.129 539.511 C 96.89200000000001 540.275 97.88300000000001 540.655 98.89 540.655 C 99.882 540.655 100.889 540.274 101.651 539.511 L 125.382 515.775 L 140.427 500.727 z M 189.438 480.026 L 139.564 527.742 L 115.57799999999999 550.6909999999999 C 114.02199999999999 552.185 113.969 554.656 115.45599999999999 556.2119999999999 C 116.22699999999999 557.0129999999999 117.25599999999999 557.4169999999999 118.27799999999999 557.4169999999999 C 119.25399999999999 557.4169999999999 120.231 557.059 120.978 556.3349999999999 L 146.54 531.8789999999999 L 194.839 485.6699999999999 C 196.395 484.1749999999999 196.448 481.7039999999999 194.961 480.1479999999999 C 193.466 478.585 190.987 478.532 189.438 480.026 z M 107.433 113.607 C 108.19600000000001 114.37 109.203 114.751 110.194 114.751 C 111.20100000000001 114.751 112.19200000000001 114.37 112.955 113.607 C 114.48 112.082 114.48 109.61 112.955 108.085 L 102.642 97.76899999999999 L 112.971 87.44699999999999 C 114.49600000000001 85.92199999999998 114.49600000000001 83.44999999999999 112.971 81.92499999999998 C 111.446 80.39999999999998 108.974 80.39999999999998 107.449 81.92499999999998 L 97.12 92.246 L 86.793 81.916 C 85.268 80.39099999999999 82.796 80.39099999999999 81.271 81.916 C 79.746 83.441 79.746 85.913 81.271 87.438 L 91.596 97.766 L 81.271 108.08500000000001 C 79.746 109.61000000000001 79.746 112.081 81.271 113.60700000000001 C 82.034 114.37000000000002 83.041 114.75100000000002 84.032 114.75100000000002 C 85.039 114.75100000000002 86.03 114.37000000000002 86.79299999999999 113.60700000000001 L 97.11699999999999 103.28900000000002 L 107.433 113.607 z" stroke-linecap="round" />
</g>
</g>
</g>
</svg>